<?xml version="1.0" encoding="iso-8859-1"?>
<!-- Generator: Adobe Illustrator 19.0.0, SVG Export Plug-In . SVG Version: 6.00 Build 0)  -->
<svg version="1.1" id="Capa_1" xmlns="http://www.w3.org/2000/svg" xmlns:xlink="http://www.w3.org/1999/xlink" x="0px" y="0px"
	 viewBox="0 0 452.956 452.956" style="enable-background:new 0 0 452.956 452.956;" xml:space="preserve">
<path style="fill:#4C3D24;" d="M180.078,228.156c-6.4-3.2-12.8-7.2-18.4-12l-22.4-19.2c3.2,29.6,20.8,56,47.2,69.6
	c3.2,1.6,5.6,2.4,8.8,4c0.8,0,0.8,0,1.6,0.8c2.4,0.8,4.8,1.6,8,2.4c0.8,0,1.6,0,2.4,0.8c2.4,0.8,4.8,0.8,7.2,1.6c0.8,0,1.6,0,2.4,0
	c6.4,0.8,13.6,0.8,20,0c0.8,0,1.6,0,2.4,0c2.4,0,4.8-0.8,7.2-1.6c0.8,0,1.6,0,2.4-0.8c2.4-0.8,5.6-1.6,8-2.4c0.8,0,0.8,0,1.6-0.8
	c3.2-0.8,5.6-2.4,8.8-4c26.4-13.6,44.8-40,47.2-69.6l-23.2,18.4c-5.6,4.8-12,8.8-18.4,12L180.078,228.156z"/>
<path style="fill:#F2DBC0;" d="M299.278,83.356c-7.2-18.4-28-27.2-46.4-20c-2.4,0.8-4.8,2.4-7.2,4c-12,8-27.2,8.8-39.2,1.6l-3.2-2.4
	c-16.8-10.4-38.4-5.6-48.8,11.2c-1.6,3.2-3.2,6.4-4,9.6l-12,53.6v48c0,3.2,0,5.6,0.8,8l23.2,18.4c37.6,30.4,92,30.4,129.6,0
	l23.2-18.4c0-2.4,0.8-5.6,0.8-8v-48L299.278,83.356z"/>
<path d="M66.478,444.956h320v-72c0-26.4-21.6-48-48-48h-72l-40,40l-40-40h-72c-26.4,0-48,21.6-48,48V444.956z"/>
<g>
	<path style="fill:#F2DBC0;" d="M266.478,324.956v-57.6l0,0c-3.2,1.6-5.6,2.4-8.8,4c-0.8,0-0.8,0-1.6,0.8c-2.4,0.8-4.8,1.6-8,2.4
		c-0.8,0-1.6,0-2.4,0.8c-2.4,0.8-4.8,0.8-7.2,1.6c-0.8,0-1.6,0-2.4,0c-6.4,0.8-13.6,0.8-20,0c-0.8,0-1.6,0-2.4,0
		c-2.4,0-4.8-0.8-7.2-1.6c-0.8,0-1.6,0-2.4-0.8c-2.4-0.8-5.6-1.6-8-2.4c-0.8,0-0.8,0-1.6-0.8c-3.2-0.8-5.6-2.4-8.8-4l0,0v57.6l40,40
		L266.478,324.956z"/>
	<path style="fill:#F2DBC0;" d="M138.478,140.956h-12c-11.2,0-20,8.8-20,20s8.8,20,20,20h12V140.956z"/>
	<path style="fill:#F2DBC0;" d="M314.478,180.956h12c11.2,0,20-8.8,20-20s-8.8-20-20-20h-12V180.956z"/>
</g>
<path style="fill:#4C3D24;" d="M203.278,66.556l3.2,2.4c12,7.2,28,7.2,39.2-1.6c16-11.2,38.4-8,49.6,8c1.6,2.4,3.2,4.8,4,7.2
	l15.2,58.4l-3.2-80c-5.6-34.4-37.6-57.6-72-52.8c-4.8,0.8-10.4,2.4-15.2,4l-37.6,16.8c-31.2,0-56,24.8-56,56l8,56l11.2-53.6
	c4.8-19.2,24.8-30.4,43.2-24.8C196.878,63.356,200.078,64.956,203.278,66.556z"/>
<path d="M58.478,444.956c0,4.8,3.2,8,8,8h320c4.8,0,8-3.2,8-8v-72c0-31.2-24.8-56-56-56h-64v-44.8c29.6-16.8,48-48.8,48-83.2h4
	c15.2,0,28-12.8,28-28s-12.8-28-28-28h-4l-3.2-72v-0.8c-6.4-39.2-43.2-65.6-81.6-59.2c-5.6,0.8-11.2,2.4-16.8,4.8l-36,15.2
	c-34.4,0.8-62.4,29.6-62.4,64v0.8l6.4,47.2h-2.4c-15.2,0-28,12.8-28,28s12.8,28,28,28h4c0,34.4,18.4,65.6,48,83.2v44.8h-64
	c-31.2,0-56,24.8-56,56V444.956z M272.878,219.356l-14.4-7.2c-20-10.4-44-10.4-64,0l-13.6,7.2c-4.8-2.4-9.6-5.6-13.6-9.6l-20.8-16
	c0-1.6,0-3.2,0-4v-47.2l11.2-52c4-14.4,19.2-23.2,33.6-19.2c2.4,0.8,4.8,1.6,7.2,3.2l3.2,2.4c15.2,9.6,33.6,8.8,48-1.6
	c12-8.8,29.6-5.6,38.4,6.4c0.8,1.6,2.4,3.2,3.2,5.6l15.2,56v45.6c0,1.6,0,3.2,0,4l-20,16.8
	C281.678,212.956,277.678,216.156,272.878,219.356z M252.878,227.356c-17.6,4.8-36,4.8-52.8,0l1.6-0.8c16-8,34.4-8,50.4,0
	L252.878,227.356z M338.478,160.956c0,6.4-5.6,12-12,12h-4v-24h4C332.878,148.956,338.478,154.556,338.478,160.956z M186.478,36.956
	c0.8,0,2.4,0,3.2-0.8l37.6-16c28-12,60.8,0.8,72.8,28.8c1.6,4,3.2,8,4,12.8l0.8,12c-12-20.8-39.2-27.2-59.2-15.2
	c-0.8,0.8-2.4,1.6-3.2,1.6c-8.8,6.4-20.8,7.2-30.4,0.8l-3.2-2.4c-20-12.8-47.2-6.4-60,13.6c-2.4,4-4,8-4.8,12l-2.4,9.6l-3.2-9.6
	C138.478,57.756,160.078,36.956,186.478,36.956z M126.478,172.956c-6.4,0-12-5.6-12-12s5.6-12,12-12h4v24H126.478z M152.078,218.556
	l4.8,4c40.8,32.8,99.2,32.8,139.2,0l4.8-4c-16,40.8-62.4,60.8-104,44.8C176.878,255.356,160.078,239.356,152.078,218.556z
	 M226.478,284.956c11.2,0,21.6-1.6,32-5.6v42.4l-32,32l-32-32v-42.4C204.878,283.356,215.278,284.956,226.478,284.956z
	 M74.478,372.956c0-22.4,17.6-40,40-40h68.8l37.6,37.6c3.2,3.2,8,3.2,11.2,0l37.6-37.6h68.8c22.4,0,40,17.6,40,40v64h-304V372.956z"
	/>
<path d="M186.478,151.356c-8,0-14.4,6.4-14.4,14.4s6.4,14.4,14.4,14.4s14.4-6.4,14.4-14.4
	C200.078,156.956,194.478,151.356,186.478,151.356z M184.878,164.956c0-0.8,0.8-2.4,2.4-2.4s2.4,0.8,2.4,2.4
	C188.878,167.356,184.878,167.356,184.878,164.956z"/>
<path d="M266.478,151.356c-8,0-14.4,6.4-14.4,14.4s6.4,14.4,14.4,14.4s14.4-6.4,14.4-14.4
	C280.078,156.956,274.478,151.356,266.478,151.356z M264.878,164.956c0-0.8,0.8-2.4,2.4-2.4s2.4,0.8,2.4,2.4
	C268.878,167.356,264.878,167.356,264.878,164.956z"/>
<g>
</g>
<g>
</g>
<g>
</g>
<g>
</g>
<g>
</g>
<g>
</g>
<g>
</g>
<g>
</g>
<g>
</g>
<g>
</g>
<g>
</g>
<g>
</g>
<g>
</g>
<g>
</g>
<g>
</g>
</svg>
