<?xml version="1.0" encoding="iso-8859-1"?>
<!-- Generator: Adobe Illustrator 19.0.0, SVG Export Plug-In . SVG Version: 6.00 Build 0)  -->
<svg version="1.1" id="Capa_1" xmlns="http://www.w3.org/2000/svg" xmlns:xlink="http://www.w3.org/1999/xlink" x="0px" y="0px"
	 viewBox="0 0 472.568 472.568" style="enable-background:new 0 0 472.568 472.568;" xml:space="preserve">
<path style="fill:#4C3D24;" d="M181.156,72.944l1.024,0.432l2.664,1.128l1,0.424l1.72,0.728l0.968,0.408l1.504,0.632l2.048,0.856
	l1.52,0.64l1.776,0.736l1.856,0.8l2.296,0.952l1.856,0.8l2.464,1.016l1.76,0.728l2.8,1.152l2.328,0.952l2.584,1.064l1.912,0.8
	l3.592,1.464l1.096,0.44l4.04,1.64l1.896,0.76c8.112,3.264,16.8,6.712,25.72,10.168l1.496,0.576l4.168,1.6l2.024,0.8l4.088,1.6
	l1.992,0.752l4,1.512l2.224,0.8l3.784,1.4l2.296,0.84l3.792,1.384l2.264,0.8l3.704,1.32l2.168,0.8l3.688,1.288l2.168,0.744
	l3.528,1.2l2.064,0.688l3.472,1.152l2.008,0.648c1.104,0.352,2.208,0.712,3.288,1.048l1.888,0.584
	c1.096,0.336,2.184,0.68,3.24,0.992l1.6,0.464l3.2,0.936l1.304,0.352c1.088,0.304,2.184,0.608,3.2,0.88
	c2.896,0.752,5.6,1.392,8,1.872h8v-16.704c0-57.438-46.562-104-104-104s-104,46.562-104,104l8.056,40.576h8l32-80L181.156,72.944z"
	/>
<path style="fill:#F19120;" d="M348.284,328.568h-72v8c0,22.091-17.909,40-40,40s-40-17.909-40-40v-8h-72c-26.51,0-48,21.49-48,48
	v88h320v-88C396.284,350.058,374.794,328.568,348.284,328.568z"/>
<g>
	<path style="fill:#F2DBC0;" d="M276.284,270.888L276.284,270.888c29.437-15.022,47.976-45.271,48-78.32v-65.872l0,0
		c-1.04-0.272-2.136-0.576-3.2-0.88l-1.304-0.352l-3.2-0.936l-1.6-0.464c-1.056-0.312-2.144-0.656-3.24-0.992l-1.888-0.584
		c-1.08-0.336-2.184-0.696-3.288-1.048l-2.008-0.648l-3.472-1.152l-2.064-0.688l-3.528-1.2l-2.168-0.744l-3.688-1.288l-2.168-0.8
		l-3.704-1.32l-2.264-0.8c-1.264-0.456-2.528-0.912-3.792-1.384l-2.296-0.84l-3.784-1.4l-2.224-0.8l-4-1.512l-1.992-0.752
		l-4.088-1.6l-2.024-0.8l-4.168-1.6l-1.496-0.576c-8.904-3.456-17.6-6.904-25.72-10.168l-1.896-0.76l-4.04-1.64l-1.152-0.4
		l-3.592-1.464l-1.912-0.8l-2.584-1.064l-2.328-0.952l-2.8-1.152l-1.76-0.728l-2.464-1.016l-1.856-0.8l-2.296-0.952l-1.856-0.8
		l-1.776-0.736l-1.52-0.64l-2.048-0.856l-1.504-0.632l-0.968-0.408l-1.68-0.6l-1-0.424l-2.664-1.128l-1.024-0.432l-0.912-0.416
		l-32,80v40c-0.214,33.16,18.385,63.576,48,78.496v-0.176 M196.284,271.064v65.504c0,22.091,17.909,40,40,40s40-17.909,40-40V270.92
		"/>
	<path style="fill:#F2DBC0;" d="M136.284,160.568c-11.046,0-20,8.954-20,20s8.954,20,20,20h12v-40H136.284z"/>
	<path style="fill:#F2DBC0;" d="M324.284,200.568h12c11.046,0,20-8.954,20-20s-8.954-20-20-20h-12V200.568z"/>
</g>
<path d="M348.284,320.568h-64v-44.936c7.001-4.028,13.467-8.92,19.248-14.56c14.462-14.149,24.035-32.541,27.328-52.504h5.424
	c15.464,0,28-12.536,28-28s-12.536-28-28-28h-4v-16h8c4.418,0,8-3.582,8-8V112c0-61.856-50.144-112-112-112s-112,50.144-112,112
	c-0.002,0.518,0.049,1.036,0.152,1.544l7.776,39.432c-15.27,2.24-25.832,16.435-23.591,31.705
	c2.014,13.725,13.791,23.895,27.663,23.887h5.4c4.55,28.342,21.682,53.102,46.6,67.352v44.648h-64
	c-30.913,0.035-55.965,25.087-56,56v88c0,4.418,3.582,8,8,8h320c4.418,0,8-3.582,8-8v-88
	C404.249,345.655,379.197,320.603,348.284,320.568z M336.284,168.568c6.627,0,12,5.373,12,12s-5.373,12-12,12h-4v-24H336.284z
	 M201.82,22.4c49.485-19.034,105.03,5.651,124.064,55.136c4.23,10.998,6.4,22.68,6.4,34.464v8.4
	c-40.056-8.664-147.752-54.712-148.848-55.2c-4.06-1.742-8.764,0.137-10.506,4.197c-0.027,0.062-0.052,0.124-0.078,0.187
	l-27.312,68.28l-5.256-26.632C140.757,71.842,165.109,36.688,201.82,22.4z M136.284,192.568c-6.627,0-12-5.373-12-12s5.373-12,12-12
	h4v24H136.284z M156.284,192.568v-38.456l28.392-70.992c22.96,9.68,91.792,38.24,131.608,49.664v59.784c0,44.183-35.817,80-80,80
	S156.284,236.751,156.284,192.568z M234.484,288.568h1.8c10.905-0.017,21.727-1.894,32-5.552v53.552c0,17.673-14.327,32-32,32
	s-32-14.327-32-32v-53.416C214.001,286.544,224.194,288.372,234.484,288.568z M388.284,456.568h-304v-80
	c0.026-22.08,17.92-39.974,40-40h64c0,26.51,21.49,48,48,48s48-21.49,48-48h64c22.08,0.026,39.974,17.92,40,40V456.568z"/>
<path d="M196.284,170.568c-7.732,0-14,6.268-14,14s6.268,14,14,14s14-6.268,14-14C210.275,176.84,204.012,170.577,196.284,170.568z
	 M194.284,184.568c0-1.105,0.895-2,2-2s2,0.895,2,2C198.284,186.768,194.284,186.768,194.284,184.568z"/>
<path d="M276.284,198.568c7.732,0,14-6.268,14-14s-6.268-14-14-14s-14,6.268-14,14C262.293,192.296,268.556,198.559,276.284,198.568
	z M276.284,182.568c1.105,0,2,0.895,2,2c0,2.2-4,2.2-4,0C274.284,183.463,275.179,182.568,276.284,182.568z"/>
<path d="M266.284,224.568h-12c0,9.941-8.059,18-18,18s-18-8.059-18-18h-12c0,16.569,13.431,30,30,30
	S266.284,241.137,266.284,224.568z"/>
<g>
</g>
<g>
</g>
<g>
</g>
<g>
</g>
<g>
</g>
<g>
</g>
<g>
</g>
<g>
</g>
<g>
</g>
<g>
</g>
<g>
</g>
<g>
</g>
<g>
</g>
<g>
</g>
<g>
</g>
</svg>
