<?xml version="1.0" encoding="iso-8859-1"?>
<!-- Generator: Adobe Illustrator 19.0.0, SVG Export Plug-In . SVG Version: 6.00 Build 0)  -->
<svg version="1.1" id="Capa_1" xmlns="http://www.w3.org/2000/svg" xmlns:xlink="http://www.w3.org/1999/xlink" x="0px" y="0px"
	 viewBox="0 0 480.009 480.009" style="enable-background:new 0 0 480.009 480.009;" xml:space="preserve">
<path style="fill:#D83635;" d="M351.978,336.009h-72l-40,64l-40-64h-72c-26.51,0-48,21.49-48,48v88h320v-88
	C399.978,357.5,378.487,336.009,351.978,336.009z"/>
<path style="fill:#4C3D24;" d="M419.754,368.009c17.673-19.759,15.982-50.104-3.777-67.777c-8.8-7.871-20.192-12.223-31.999-12.223
	h-8c13.255,0,24-10.745,24-24c0-13.255-10.745-24-24-24h-8V139.625c0-68.92-52.968-128.232-121.816-131.472
	C175.552,4.738,115.543,59.21,112.127,129.82c-0.1,2.062-0.15,4.125-0.149,6.189v104h-8c-13.255,0-24,10.745-24,24
	c0,13.255,10.745,24,24,24h-8c-26.509,0.228-47.813,21.903-47.585,48.411c0.213,24.696,19.13,45.2,43.729,47.397l-12.144,16.192
	c0,17.673,14.327,32,32,32h40c26.51,0,48-21.49,48-48s-21.49-48-48-48h216l24,24v8h24"/>
<path style="fill:#F2DBC0;" d="M263.978,176.009h64v-24h-7.016c-14.682-0.002-27.48-9.996-31.04-24.24l-17.944-63.76l-16.424,57.704
	c-4.45,17.795-20.433,30.283-38.776,30.296h-64.8v24h64v24c0,8.837-7.163,16-16,16h-32c-8.837,0-16-7.163-16-16
	c0.007,33.053,18.551,63.31,48,78.32l0,0v57.68l40,64l40-64v-57.68l0,0c29.449-15.01,47.993-45.267,48-78.32c0,8.837-7.163,16-16,16
	h-32c-8.837,0-16-7.163-16-16V176.009z"/>
<g>
	<path style="fill:#BFEAEF;" d="M167.978,216.009h32c8.837,0,16-7.163,16-16v-24h-64v24
		C151.978,208.846,159.141,216.009,167.978,216.009z"/>
	<path style="fill:#BFEAEF;" d="M263.978,184.009v16c0,8.837,7.163,16,16,16h32c8.837,0,16-7.163,16-16v-24h-64V184.009z"/>
</g>
<g>
	<circle style="fill:#F2DBC0;" cx="191.978" cy="192.009" r="8"/>
	<circle style="fill:#F2DBC0;" cx="287.978" cy="192.009" r="8"/>
</g>
<path d="M71.978,472.009c0,4.418,3.582,8,8,8h320c4.418,0,8-3.582,8-8v-88c-0.035-30.913-25.087-55.965-56-56h-64v-44.992
	c29.662-17.125,47.953-48.757,48-83.008v-40h8v-16h-23.016c-11.094-0.014-20.738-7.616-23.344-18.4l-17.936-63.76
	c-0.968-3.454-4.117-5.841-7.704-5.84c-3.642-0.201-6.899,2.252-7.712,5.808l-16.48,57.952
	c-3.558,14.233-16.338,24.223-31.008,24.24h-80.8v16h8v40c0.047,34.251,18.338,65.883,48,83.008v52.992
	c0,1.499,0.421,2.969,1.216,4.24l40,64c2.327,3.756,7.259,4.913,11.014,2.586c1.05-0.651,1.935-1.536,2.586-2.586l37.616-60.24
	h67.568c22.08,0.026,39.974,17.92,40,40v80h-304v-8h-16V472.009z M311.978,208.009h-32c-4.418,0-8-3.582-8-8v-16h4.544
	c-4.444,6.327-2.918,15.059,3.409,19.503s15.059,2.918,19.503-3.409c3.392-4.829,3.392-11.266,0-16.095h20.544v16
	C319.978,204.427,316.396,208.009,311.978,208.009z M289.978,192.009c0,2.2-4,2.2-4,0c0-1.105,0.895-2,2-2
	S289.978,190.905,289.978,192.009z M216.778,160.009c21.946,0.052,41.115-14.83,46.504-36.104l8.68-30.52l10.224,36.328
	c4.358,17.432,19.828,29.801,37.792,30.216v8.08h-56c-4.418,0-8,3.582-8,8h-32c0-4.418-3.582-8-8-8h-56v-8H216.778z
	 M193.978,192.009c0,2.2-4,2.2-4,0c0-1.105,0.895-2,2-2S193.978,190.905,193.978,192.009z M159.978,184.009h20.544
	c-4.444,6.327-2.918,15.059,3.409,19.503c6.327,4.444,15.059,2.918,19.503-3.409c3.392-4.829,3.392-11.266,0-16.095h4.544v16
	c0,4.418-3.582,8-8,8h-32c-4.418,0-8-3.582-8-8V184.009z M163.522,223.561c1.468,0.288,2.96,0.438,4.456,0.448h32
	c13.255,0,24-10.745,24-24v-8h32v8c0,13.255,10.745,24,24,24h32c1.496-0.01,2.988-0.16,4.456-0.448
	c-13.005,42.226-57.778,65.913-100.003,52.909C191.125,268.676,171.315,248.866,163.522,223.561z M239.978,384.913l-32-51.2v-43.304
	c20.68,7.466,43.32,7.466,64,0v43.304L239.978,384.913z"/>
<path d="M151.978,424.009h-40c-13.255,0-24-10.745-24-24h-16c0.026,22.08,17.92,39.974,40,40h40c30.928,0,56-25.072,56-56
	s-25.072-56-56-56h-24v16h24c22.091,0,40,17.909,40,40S174.069,424.009,151.978,424.009z"/>
<path d="M401.658,282.913c4.084-5.458,6.3-12.087,6.32-18.904c0-17.673-14.327-32-32-32v-92.384
	c1.094-73.624-55.939-135.073-129.44-139.464C171.514-3.462,107.759,54.42,104.136,129.443c-0.106,2.187-0.158,4.377-0.158,6.566v96
	c-17.673,0-32,14.327-32,32c0.02,6.817,2.236,13.446,6.32,18.904c-29.324,9.83-45.127,41.571-35.297,70.895
	c7.636,22.78,28.952,38.15,52.977,38.201h48v-16h-48c-22.091,0-40-17.909-40-40s17.909-40,40-40h48v-16h-40c-8.837,0-16-7.163-16-16
	c0-8.837,7.163-16,16-16h8c4.418,0,8-3.582,8-8v-104c-0.003-66.274,53.721-120.002,119.995-120.005c1.941,0,3.882,0.047,5.821,0.141
	c64.953,4.012,115.257,58.412,114.184,123.48v100.384c0,4.418,3.582,8,8,8h8c8.837,0,16,7.163,16,16c0,8.837-7.163,16-16,16h-40v16
	h48c22.091,0,40,17.909,39.999,40.001c0,9.838-3.626,19.33-10.183,26.663l11.92,10.672c20.59-23.078,18.573-58.478-4.506-79.068
	c-5.679-5.067-12.331-8.923-19.55-11.332L401.658,282.913z"/>
<path d="M269.978,232.009h-12c0,9.941-8.059,18-18,18s-18-8.059-18-18h-12c0,16.569,13.431,30,30,30
	S269.978,248.578,269.978,232.009z"/>
<g>
</g>
<g>
</g>
<g>
</g>
<g>
</g>
<g>
</g>
<g>
</g>
<g>
</g>
<g>
</g>
<g>
</g>
<g>
</g>
<g>
</g>
<g>
</g>
<g>
</g>
<g>
</g>
<g>
</g>
</svg>
