<?xml version="1.0" encoding="iso-8859-1"?>
<!-- Generator: Adobe Illustrator 19.0.0, SVG Export Plug-In . SVG Version: 6.00 Build 0)  -->
<svg version="1.1" id="Capa_1" xmlns="http://www.w3.org/2000/svg" xmlns:xlink="http://www.w3.org/1999/xlink" x="0px" y="0px"
	 viewBox="0 0 480.009 480.009" style="enable-background:new 0 0 480.009 480.009;" xml:space="preserve">
<g>
	<path style="fill:#C07029;" d="M207.995,368.009c-17.673,0-32-14.327-32-32h-48c-26.51,0-48,21.49-48,48v88h160v-104H207.995z"/>
	<path style="fill:#C07029;" d="M271.995,368.009h-32v104h160v-88c0-26.51-21.49-48-48-48h-48
		C303.995,353.682,289.668,368.009,271.995,368.009z"/>
</g>
<path style="fill:#F2DBC0;" d="M327.995,200.009v-48h-7.016c-14.682-0.002-27.48-9.996-31.04-24.24l-17.944-63.76l-16.424,57.704
	c-4.45,17.795-20.433,30.283-38.776,30.296h-64.8v48c0.007,33.053,18.551,63.31,48,78.32l0,0v57.68h-24c0,17.673,14.327,32,32,32h64
	c17.673,0,32-14.327,32-32h-24v-57.68l0,0C309.444,263.32,327.987,233.063,327.995,200.009z"/>
<path style="fill:#4C3D24;" d="M327.995,152.009h-7.016c-14.682-0.002-27.48-9.996-31.04-24.24l-17.944-63.76l-16.424,57.704
	c-3.264,13.068-12.886,23.616-25.6,28.064c-8.099,3.134-13.367,11.006-13.176,19.688v10.16c0,11.258-9.126,20.384-20.384,20.384
	c-0.011,0-0.021,0-0.032,0l0,0c-11.258,0-20.384,9.126-20.384,20.384l0,0v35.616c0,13.255-10.745,24-24,24l0,0
	c-22.091,0-40-17.909-40-40l0,0c-17.673,0-32-14.327-32-32l0,0c0-17.673,14.327-32,32-32l0,0v-40
	C111.992,65.317,169.297,8.007,239.989,8.004c2.064,0,4.128,0.05,6.189,0.149c68.848,3.248,121.816,62.552,121.816,131.472v36.384
	l0,0c17.673,0,32,14.327,32,32l0,0c0,17.673-14.327,32-32,32l0,0c0,22.091-17.909,40-40,40h-48c15.557-10.907,29.093-24.443,40-40
	C335.995,216.009,327.995,152.009,327.995,152.009z"/>
<path d="M175.995,328.009h-48c-30.913,0.035-55.965,25.087-56,56v88c0,4.418,3.582,8,8,8h320c4.418,0,8-3.582,8-8v-88
	c-0.035-30.913-25.087-55.965-56-56h-64v-44.992c29.662-17.125,47.953-48.757,48-83.008v-40h8v-16h-23.016
	c-11.094-0.014-20.738-7.616-23.344-18.4l-17.944-63.76c-0.968-3.451-4.112-5.837-7.696-5.84l0,0
	c-3.575-0.001-6.716,2.37-7.696,5.808l-16.488,57.952c-2.604,10.468-10.316,18.914-20.504,22.456
	c-11.32,4.222-18.75,15.12-18.544,27.2v10.16c0.013,6.848-5.528,12.411-12.376,12.424c-0.003,0-0.005,0-0.008,0
	c-15.669,0.018-28.366,12.715-28.384,28.384v35.616c0,8.837-7.163,16-16,16c-17.673,0-32-14.327-32-32c0-4.418-3.582-8-8-8
	c-13.255,0-24-10.745-24-24s10.745-24,24-24c4.418,0,8-3.582,8-8v-40C119.992,69.735,173.716,16.007,239.99,16.004
	c1.941,0,3.882,0.047,5.821,0.141c64.953,4.012,115.257,58.412,114.184,123.48v36.384c0,4.418,3.582,8,8,8c13.255,0,24,10.745,24,24
	s-10.745,24-24,24c-4.418,0-8,3.582-8,8c0,17.673-14.327,32-32,32h-16v16h16c23.68-0.03,43.811-17.297,47.448-40.696
	c21.708-4.097,35.985-25.016,31.888-46.724c-3.015-15.978-15.402-28.54-31.336-31.78v-29.184
	c1.09-73.622-55.941-135.069-129.44-139.464C171.531-3.462,107.776,54.42,104.153,129.443c-0.106,2.187-0.158,4.377-0.158,6.566
	v32.8c-21.646,4.413-35.616,25.538-31.203,47.184c3.245,15.917,15.794,28.291,31.755,31.312
	c3.633,23.402,23.766,40.673,47.448,40.704c10.696-0.009,20.68-5.361,26.608-14.264c4.186,3.512,8.667,6.657,13.392,9.4v44.864
	H175.995z M87.995,384.009c0.026-22.08,17.92-39.974,40-40h40.8c3.825,18.613,20.198,31.979,39.2,32h24v88h-144V384.009z
	 M311.195,344.009h40.8c22.08,0.026,39.974,17.92,40,40v80h-144v-88h24C290.997,375.988,307.37,362.622,311.195,344.009z
	 M183.995,256.009v-35.616c0.004-6.838,5.546-12.38,12.384-12.384c15.681,0,28.398-12.703,28.416-28.384v-10.16
	c-0.175-5.276,2.939-10.108,7.816-12.128c15.208-5.263,26.743-17.83,30.688-33.432l8.688-30.52l10.216,36.32
	c4.352,17.437,19.825,29.811,37.792,30.224v40.08c-0.048,44.163-35.837,79.952-80,80c-21.021,0.06-41.201-8.247-56.088-23.088
	C183.915,256.609,183.995,256.321,183.995,256.009z M239.995,296.009c10.908-0.023,21.732-1.917,32-5.6v45.6c0,4.418,3.582,8,8,8
	h14.528c-3.378,9.555-12.394,15.958-22.528,16h-64c-10.134-0.042-19.15-6.445-22.528-16h14.528c4.418,0,8-3.582,8-8v-45.528
	C218.27,294.126,229.092,295.996,239.995,296.009z"/>
<path d="M279.995,206.009c7.732,0,14-6.268,14-14s-6.268-14-14-14s-14,6.268-14,14C266.004,199.738,272.266,206,279.995,206.009z
	 M279.995,190.009c1.105,0,2,0.895,2,2c0,2.2-4,2.2-4,0C277.995,190.905,278.89,190.009,279.995,190.009z"/>
<path d="M269.995,232.009h-12c0,9.941-8.059,18-18,18s-18-8.059-18-18h-12c0,16.569,13.431,30,30,30
	S269.995,248.578,269.995,232.009z"/>
<g>
</g>
<g>
</g>
<g>
</g>
<g>
</g>
<g>
</g>
<g>
</g>
<g>
</g>
<g>
</g>
<g>
</g>
<g>
</g>
<g>
</g>
<g>
</g>
<g>
</g>
<g>
</g>
<g>
</g>
</svg>
