<?xml version="1.0" encoding="iso-8859-1"?>
<!-- Generator: Adobe Illustrator 19.0.0, SVG Export Plug-In . SVG Version: 6.00 Build 0)  -->
<svg version="1.1" id="Capa_1" xmlns="http://www.w3.org/2000/svg" xmlns:xlink="http://www.w3.org/1999/xlink" x="0px" y="0px"
	 viewBox="0 0 472.49 472.49" style="enable-background:new 0 0 472.49 472.49;" xml:space="preserve">
<path style="fill:#2E2C44;" d="M348.245,344.49h-72l-40,40l-40-40h-72c-26.51,0-48,21.49-48,48v72h320v-72
	C396.245,365.98,374.755,344.49,348.245,344.49z"/>
<g>
	<path style="fill:#F2DBC0;" d="M313.045,107.69c-2.941-11.757-12.273-20.844-24.104-23.472l-0.576-0.128
		c-34.328-7.632-69.912-7.632-104.24,0c-12.129,2.695-21.601,12.167-24.296,24.296l-11.584,52.104v48
		c0.007,33.053,18.551,63.31,48,78.32l0,0v57.68l40,40l40-40v-57.68l0,0c29.449-15.01,47.993-45.267,48-78.32v-48L313.045,107.69z"
		/>
	<path style="fill:#F2DBC0;" d="M148.245,160.49h-12c-11.046,0-20,8.954-20,20s8.954,20,20,20h12V160.49z"/>
	<path style="fill:#F2DBC0;" d="M324.245,184.49v16h12c11.046,0,20-8.954,20-20s-8.954-20-20-20h-12V184.49z"/>
</g>
<path style="fill:#EACA65;" d="M159.829,108.37c2.695-12.129,12.167-21.601,24.296-24.296c34.328-7.632,69.912-7.632,104.24,0
	l0.576,0.128c11.836,2.631,21.168,11.725,24.104,23.488l11.2,52.8h8l5.44-95.008c1.481-23.644-14.358-44.891-37.44-50.224l0,0
	c-42.113-9.723-85.887-9.723-128,0c-23.109,5.329-38.999,26.558-37.6,50.232l5.6,95h8L159.829,108.37z"/>
<path d="M348.245,336.49h-64v-44.992c29.662-17.125,47.953-48.757,48-83.008h4c15.437,0.014,27.964-12.488,27.978-27.926
	c0.013-13.74-9.963-25.452-23.53-27.626l4.976-86.952c1.803-27.582-16.697-52.389-43.648-58.528
	c-43.287-9.944-88.265-9.944-131.552,0c-26.961,6.142-45.51,30.903-43.824,58.504l5.12,86.976
	c-15.243,2.442-25.62,16.779-23.178,32.022c2.175,13.58,13.906,23.559,27.658,23.53h4c0.047,34.251,18.338,65.883,48,83.008v44.992
	h-64c-30.913,0.035-55.965,25.087-56,56v72c0,4.418,3.582,8,8,8h320c4.418,0,8-3.582,8-8v-72
	C404.21,361.577,379.158,336.525,348.245,336.49z M348.245,180.49c0,6.627-5.373,12-12,12h-4v-24h4
	C342.872,168.49,348.245,173.863,348.245,180.49z M174.069,23.05c40.918-9.397,83.434-9.397,124.352,0
	c19.323,4.401,32.581,22.194,31.272,41.968l-3.72,65.072l-5.168-24.36c-3.728-14.902-15.661-26.353-30.704-29.464
	c-35.477-7.828-72.235-7.828-107.712,0c-15.163,3.396-27.004,15.237-30.4,30.4l-5.48,24.648l-3.864-66.296
	C141.445,45.226,154.74,27.471,174.069,23.05z M136.245,192.49c-6.627,0-12-5.373-12-12s5.373-12,12-12h4v24H136.245z
	 M156.245,208.49v-47.128l11.392-51.272c2.041-9.076,9.131-16.163,18.208-18.2c33.386-7.352,67.976-7.311,101.344,0.12
	c8.798,1.901,15.77,8.604,18.016,17.32l11.04,51.96v47.2c0,44.183-35.817,80-80,80S156.245,252.673,156.245,208.49z M236.245,304.49
	c10.908-0.023,21.732-1.917,32-5.6v42.288l-32,32l-32-32V298.89C214.513,302.573,225.337,304.467,236.245,304.49z M388.245,456.49
	h-304v-64c0.026-22.08,17.92-39.974,40-40h68.688l37.656,37.656c3.124,3.123,8.188,3.123,11.312,0l37.656-37.656h68.688
	c22.08,0.026,39.974,17.92,40,40V456.49z"/>
<path d="M196.245,170.49c-7.732,0-14,6.268-14,14s6.268,14,14,14s14-6.268,14-14C210.236,176.762,203.973,170.499,196.245,170.49z
	 M194.245,184.49c0-1.105,0.895-2,2-2s2,0.895,2,2C198.245,186.69,194.245,186.69,194.245,184.49z"/>
<path d="M276.245,198.49c7.732,0,14-6.268,14-14s-6.268-14-14-14s-14,6.268-14,14C262.254,192.218,268.517,198.481,276.245,198.49z
	 M276.245,182.49c1.105,0,2,0.895,2,2c0,2.2-4,2.2-4,0C274.245,183.385,275.14,182.49,276.245,182.49z"/>
<path d="M266.245,224.49h-12c0,9.941-8.059,18-18,18s-18-8.059-18-18h-12c0,16.569,13.431,30,30,30S266.245,241.059,266.245,224.49z
	"/>
<g>
</g>
<g>
</g>
<g>
</g>
<g>
</g>
<g>
</g>
<g>
</g>
<g>
</g>
<g>
</g>
<g>
</g>
<g>
</g>
<g>
</g>
<g>
</g>
<g>
</g>
<g>
</g>
<g>
</g>
</svg>
